HIERARCHY
ROOT Hips
{
  OFFSET 267.745 86.9975 -272.335
  CHANNELS 6 Xposition Yposition Zposition Zrotation Xrotation Yrotation
  JOINT LeftUpLeg
  {
    OFFSET 8.64259 1.95398 -2.38835
    CHANNELS 3 Zrotation Xrotation Yrotation
    JOINT LeftLeg
    {
      OFFSET 43.7702 0 0
      CHANNELS 3 Zrotation Xrotation Yrotation
      JOINT LeftFoot
      {
        OFFSET 40.6238 0 0
        CHANNELS 3 Zrotation Xrotation Yrotation
        JOINT LeftToeBase
        {
          OFFSET 12.7242 0 0
          CHANNELS 3 Zrotation Xrotation Yrotation
          End Site
          {
            OFFSET 0 0 0
          }
        }
      }
    }
  }
  JOINT RightUpLeg
  {
    OFFSET -8.2249 1.95398 -2.59336
    CHANNELS 3 Zrotation Xrotation Yrotation
    JOINT RightLeg
    {
      OFFSET 43.5653 0 0
      CHANNELS 3 Zrotation Xrotation Yrotation
      JOINT RightFoot
      {
        OFFSET 40.6238 0 0
        CHANNELS 3 Zrotation Xrotation Yrotation
        JOINT RightToeBase
        {
          OFFSET 12.7242 0 0
          CHANNELS 3 Zrotation Xrotation Yrotation
          End Site
          {
            OFFSET 0 0 0
          }
        }
      }
    }
  }
  JOINT Spine
  {
    OFFSET 0.165834 0.87714 6.61349
    CHANNELS 3 Zrotation Xrotation Yrotation
    JOINT Spine1
    {
      OFFSET 7.38963 1.71661e-005 0
      CHANNELS 3 Zrotation Xrotation Yrotation
      JOINT Spine2
      {
        OFFSET 11.9445 1.14441e-005 0
        CHANNELS 3 Zrotation Xrotation Yrotation
        JOINT Spine3
        {
          OFFSET 14.7254 4.19617e-005 0
          CHANNELS 3 Zrotation Xrotation Yrotation
          JOINT Spine4
          {
            OFFSET 10.9679 0 0
            CHANNELS 3 Zrotation Xrotation Yrotation
            JOINT RightShoulder
            {
              OFFSET 2.46616 -1.6653 3.69651
              CHANNELS 3 Zrotation Xrotation Yrotation
              JOINT RightArm
              {
                OFFSET 13.0012 0 0
                CHANNELS 3 Zrotation Xrotation Yrotation
                JOINT RightForeArm
                {
                  OFFSET 28.7848 1.52588e-005 0
                  CHANNELS 3 Zrotation Xrotation Yrotation
                  JOINT RightHand
                  {
                    OFFSET 26.5688 1.52588e-005 0
                    CHANNELS 3 Zrotation Xrotation Yrotation
                    End Site
                    {
                      OFFSET 0 0 0
                    }
                  }
                }
              }
            }
            JOINT LeftShoulder
            {
              OFFSET 2.38034 -1.29275 -3.7523
              CHANNELS 3 Zrotation Xrotation Yrotation
              JOINT LeftArm
              {
                OFFSET 16.3182 6.10352e-005 0
                CHANNELS 3 Zrotation Xrotation Yrotation
                JOINT LeftForeArm
                {
                  OFFSET 27.0901 0 0
                  CHANNELS 3 Zrotation Xrotation Yrotation
                  JOINT LeftHand
                  {
                    OFFSET 24.5451 1.52588e-005 0
                    CHANNELS 3 Zrotation Xrotation Yrotation
                    End Site
                    {
                      OFFSET 0 0 0
                    }
                  }
                }
              }
            }
            JOINT Neck
            {
              OFFSET 5.0226 -0.0266342 0
              CHANNELS 3 Zrotation Xrotation Yrotation
              JOINT Head
              {
                OFFSET 6.69364 2.86102e-005 0
                CHANNELS 3 Zrotation Xrotation Yrotation
                End Site
                {
                  OFFSET 0 0 0
                }
              }
            }
          }
        }
      }
    }
  }
}
MOTION
Frames:	13
Frame Time:	0.0416667
-0.58643 96.8495 -7.10326 116.19 -84.1865 115.939 -174.318 2.57914 91.0986 -14.4529 5.30292 1.98899 66.7222 3.49887 -1.81655 27.7765 -0.386651 3.95723 174.38 3.06784 87.0465 -16.042 -4.72906 0.0735527 67.919 -3.21294 2.62706 27.545 0.318989 -0.111228 -0.302332 7.21376 -90.2017 12.4455 -0.696581 -0.322988 0.774664 -0.710116 -0.292017 -21.7612 -0.567306 -0.517408 -1.7486 -0.56731 -0.517419 101.317 -52.3121 -83.4562 29.9925 -4.78752 -6.14065 1.8372 -10.863 -12.667 -12.0978 -0.403112 -1.35407 -79.152 -51.9688 94.9289 -34.6279 -2.23331 -19.702 0.782565 46.1446 -2.20985 -3.91428 -0.024209 -9.29539 10.3359 0.034048 4.35093 -19.5574 -0.292955 -4.94533 
-0.540785 96.8407 -7.00775 117.21 -83.9899 117.081 -174.131 2.11781 91.2282 -13.8909 4.17069 1.96772 67.3724 3.79617 -2.33329 26.6204 -0.047818 2.12446 174.365 2.61545 87.1278 -15.6644 -4.69902 0.0967133 67.8818 -3.23042 2.81036 27.6869 0.327061 -0.54255 -0.29977 7.23104 -90.2259 12.4107 -0.702971 -0.370699 0.739869 -0.7186 -0.339416 -21.7959 -0.559064 -0.564842 -1.78326 -0.559055 -0.564841 101.588 -52.1613 -83.0464 30.0143 -4.43544 -6.25836 1.28983 -12.8227 -12.853 -12.5021 -0.493049 -0.617511 -79.2457 -52.1443 94.7938 -33.8646 -0.668444 -19.5831 -1.82169 37.7032 -0.479063 1.4436 -0.161456 -6.19649 9.32604 -0.328818 3.46434 -17.8009 -0.650518 -3.63336 
-0.466302 96.8471 -6.91996 118.907 -84.2951 118.78 -174.152 1.97215 91.1945 -13.8497 3.82203 2.00107 67.3252 3.62021 -2.66569 26.6768 -0.114514 2.58527 174.318 2.68344 86.9909 -15.8329 -4.78676 0.0944111 68.0926 -2.99501 3.60429 27.0941 0.507648 -0.825481 -0.258203 7.23257 -90.2384 12.4076 -0.626297 -0.404448 0.736729 -0.643485 -0.376494 -21.7987 -0.475797 -0.573981 -1.78605 -0.475787 -0.573973 101.645 -52.0415 -82.9603 29.9144 -4.644 -6.22525 1.35522 -12.3723 -13.0834 -12.3531 -0.523847 -0.259607 -79.1939 -52.5075 94.8798 -33.624 -0.835487 -19.7424 -1.96381 37.2999 -0.140562 1.65776 -0.180916 -6.95165 9.40926 -0.433759 3.63896 -17.7099 -0.829079 -3.3679 
-0.477652 96.8338 -7.0128 116.648 -84.3803 116.717 -174.144 2.50433 91.3118 -14.2727 4.02642 2.01614 67.2668 3.58822 -2.39952 27.1261 -0.161631 2.63373 174.403 2.9002 87.2052 -15.6793 -4.85317 0.177787 67.7754 -2.9961 3.25222 27.5186 0.391055 -0.749696 -0.255377 7.20562 -90.2559 12.4613 -0.62907 -0.438892 0.790466 -0.647777 -0.410801 -21.7449 -0.468087 -0.607665 -1.73221 -0.468084 -0.60767 101.629 -52.1088 -82.9846 29.8775 -4.6333 -6.21967 1.31815 -12.4389 -13.1358 -12.3397 -0.526356 -0.23206 -79.1903 -52.2564 94.8787 -33.871 -0.875734 -19.8079 -1.88529 37.4596 -0.134889 1.32519 -0.176284 -6.98859 9.35748 -0.294867 3.64833 -17.7659 -0.690629 -3.37588 
-0.456506 96.8437 -7.00803 116.33 -84.217 116.38 -174.217 2.38093 91.2701 -14.0913 4.12301 2.07139 67.3753 3.71474 -2.42893 26.8394 -0.145801 2.70779 174.379 2.75232 87.197 -15.5324 -5.00535 0.194486 67.6277 -3.16149 2.67923 28.0237 0.264027 -0.775469 -0.267807 7.20433 -90.266 12.4638 -0.658589 -0.455618 0.792954 -0.677997 -0.426195 -21.7424 -0.491215 -0.632483 -1.72974 -0.491215 -0.632487 101.509 -52.0296 -83.1681 29.9254 -4.52507 -6.18212 1.28616 -12.5534 -12.9869 -12.3974 -0.487182 -0.63562 -79.023 -52.2856 95.1272 -33.8534 -0.770361 -19.7958 -1.78015 37.2609 -0.415054 1.07334 -0.170303 -7.06709 9.32626 -0.0502578 3.92839 -18.0063 -0.480098 -3.57244 
-0.452703 96.8484 -7.01861 116.595 -84.0579 116.44 -174.286 2.21675 91.0962 -13.9636 3.99766 2.04546 67.3647 3.74625 -2.59247 26.6583 -0.111409 2.57234 174.362 2.79769 87.0357 -15.8283 -4.64092 0.0696257 67.9134 -3.13998 2.95815 27.4898 0.355267 -0.328964 -0.269665 7.21228 -90.2436 12.4481 -0.65161 -0.411718 0.777317 -0.669096 -0.38264 -21.7582 -0.497748 -0.588524 -1.74552 -0.497746 -0.588519 101.549 -52.1069 -83.106 29.7696 -4.69824 -6.19625 1.3915 -12.2264 -13.057 -12.4755 -0.492118 -0.616976 -79.0353 -52.316 95.1098 -33.7546 -0.599076 -19.7924 -1.76558 37.0197 -0.569402 1.45265 -0.167321 -6.88703 9.40597 0.0322605 3.99848 -18.1903 -0.405054 -3.62635 
-0.459343 96.855 -6.9945 118.04 -83.8479 117.669 -174.258 1.83105 90.9682 -13.6695 4.08462 1.97259 67.2244 3.76826 -2.54087 26.7046 -0.0736281 2.26294 174.238 2.69131 86.7989 -16.1118 -4.60227 0.0394805 68.0342 -3.02378 3.2842 27.5048 0.377563 -0.586841 -0.290003 7.23113 -90.2208 12.4106 -0.681136 -0.3631 0.739757 -0.696453 -0.332776 -21.796 -0.540523 -0.551026 -1.78334 -0.540522 -0.551026 101.328 -52.1699 -83.4407 29.7846 -4.48202 -6.23487 1.3845 -12.1969 -13.0588 -12.2656 -0.548787 0.0174136 -78.9644 -52.2361 95.2133 -33.6999 -0.621182 -19.7538 -1.85902 36.9394 -0.452884 1.42865 -0.177132 -6.96648 9.52976 0.112408 3.60575 -18.6133 -0.308153 -3.00992 
-0.439743 96.8386 -6.97197 119.204 -83.7829 118.796 -174.322 1.72558 90.8912 -13.8302 4.20177 2.02114 67.1228 3.6447 -2.56296 26.8889 -0.192118 3.02262 174.182 2.60124 86.7165 -16.2695 -4.41738 0.0311676 68.2984 -2.93672 3.75268 27.1105 0.519539 -0.973667 -0.261309 7.2524 -90.2298 12.3679 -0.628346 -0.387364 0.697078 -0.644782 -0.359347 -21.8384 -0.482881 -0.558298 -1.82577 -0.482879 -0.558306 101.473 -52.0881 -83.2227 29.8261 -4.52412 -6.50646 1.48975 -12.3492 -12.7186 -12.485 -0.544711 -0.115237 -79.0197 -52.4097 95.135 -33.5388 -0.516771 -19.9695 -2.16135 36.8583 -0.0534379 1.34045 -0.180223 -7.14121 9.86422 0.197295 3.49155 -19.2887 -0.213284 -2.85016 
-0.457872 96.8482 -6.99118 118.396 -83.8547 118.059 -174.327 1.90414 90.9423 -13.8956 4.13654 2.03823 67.1897 3.74771 -2.37359 26.8467 -0.116105 2.48225 174.174 2.68609 86.778 -16.1586 -4.79909 0.118623 68.0353 -3.04702 3.24453 27.6167 0.395009 -1.03804 -0.248727 7.23876 -90.2512 12.3951 -0.613571 -0.431667 0.724253 -0.631974 -0.404254 -21.8111 -0.455471 -0.596119 -1.79839 -0.455475 -0.596124 101.44 -52.0243 -83.2741 29.7321 -4.75922 -6.47449 1.62393 -11.6801 -12.9195 -12.2699 -0.532165 -0.14639 -78.9206 -52.7376 95.2879 -33.2533 -0.615442 -19.9939 -2.12208 36.9926 -0.123589 0.919329 -0.158728 -6.74311 9.94176 0.567696 3.64609 -19.9879 0.159812 -3.0572 
-0.499269 96.8491 -6.94934 119.124 -83.7097 118.621 -174.356 1.55389 90.8531 -13.5373 4.26321 2.02448 67.1256 3.77995 -2.41732 26.818 -0.140429 2.68415 174.158 2.61377 86.685 -16.3708 -4.64611 0.03875 68.1933 -3.07533 3.21387 27.6981 0.36525 -0.952348 -0.252731 7.24942 -90.2399 12.374 -0.616061 -0.408764 0.703103 -0.633459 -0.38126 -21.8323 -0.464741 -0.575021 -1.81964 -0.464738 -0.575023 101.387 -52.0527 -83.3524 29.8232 -4.54888 -6.42822 1.6069 -11.4793 -13.0589 -12.2655 -0.554838 0.0762811 -78.9724 -52.6513 95.2105 -33.3819 -0.810379 -19.6285 -1.5507 36.815 -0.829729 0.781985 -0.162448 -6.97593 9.76023 2.21089 2.33217 -20.2733 1.74686 -0.711271 
-0.465637 96.8476 -6.95665 117.843 -83.9665 117.538 -174.322 1.93358 90.9886 -13.798 3.89027 2.0498 67.3252 3.75859 -2.61396 26.6378 -0.0819256 2.37146 174.257 2.722 86.8567 -16.0673 -4.54651 0.0591071 68.1074 -3.01622 3.46467 27.4254 0.416796 -0.769134 -0.211328 7.22264 -90.2968 12.427 -0.560904 -0.52841 0.756096 -0.583615 -0.503221 -21.7787 -0.376163 -0.672549 -1.76606 -0.376166 -0.672556 101.431 -51.6298 -83.2918 30.2404 -4.27028 -6.35306 1.49855 -11.478 -13.3731 -12.821 -0.572494 0.0178516 -78.9652 -53.0615 95.229 -33.1119 -0.877281 -19.8341 -1.85575 36.8228 -0.384384 0.629305 -0.161142 -7.09904 10.1786 6.89453 -1.4528 -21.9292 6.17062 5.97494 
-0.462317 96.8458 -6.90348 117.332 -84.2091 117.085 -174.25 2.01524 91.035 -13.7393 4.05095 1.98312 67.1798 3.73023 -2.50485 27.0201 -0.184672 2.87984 174.288 2.86443 86.8893 -16.0403 -4.57029 0.0752107 68.0821 -2.92295 3.67558 27.3837 0.424047 -0.736217 -0.146181 7.21295 -90.3279 12.4464 -0.446327 -0.603532 0.77537 -0.472454 -0.583313 -21.7589 -0.244309 -0.709767 -1.74624 -0.244316 -0.709773 101.504 -51.7224 -83.1794 29.9819 -4.80269 -6.14027 1.60789 -11.1728 -13.6802 -13.1778 -0.604336 0.149383 -78.8282 -52.8126 95.4254 -33.4764 -0.715928 -20.0177 -1.74097 36.8532 -0.553387 0.835916 -0.159418 -6.85296 10.2529 13.3585 -6.17136 -24.8489 11.9448 14.3605 
-0.456816 96.8201 -6.87647 116.127 -84.1135 115.907 -174.332 2.24271 91.0069 -14.0876 4.12057 2.04826 67.2365 3.69249 -2.40386 27.0287 -0.183256 2.86297 174.257 2.87383 86.8993 -16.0171 -4.58716 0.128438 68.2538 -3.0877 3.65107 27.3129 0.504619 -1.33379 -0.0764738 7.22499 -90.3901 12.4222 -0.337334 -0.74051 0.751122 -0.369598 -0.724954 -21.7824 -0.0992011 -0.807659 -1.76976 -0.0991897 -0.807657 101.361 -51.084 -83.4065 30.1944 -5.10609 -5.90095 1.75374 -11.0877 -13.4875 -13.1568 -0.575534 -0.104078 -78.6813 -53.5966 95.6541 -32.9481 -0.652051 -20.325 -1.51142 36.52 -1.11653 0.653875 -0.16082 -7.03073 9.93691 19.2975 -9.79796 -28.268 16.7236 21.5562 
